<svg version="1.0" id="Capa_1" xmlns="http://www.w3.org/2000/svg" xmlns:xlink="http://www.w3.org/1999/xlink" x="0px" y="0px" width="100px" viewBox="0 0 1200 1199.999" enable-background="new 0 0 1200 1199.999" xml:space="preserve">
<path fill="#00516C" d="M964.328,501.934C961.081,275.306,801.096,92.678,603.994,92.678&#10;&#9;c-196.464,0-355.879,181.315-360.287,406.667c-27.591,7.44-47.951,32.359-47.951,62.197v481.256&#10;&#9;c0,35.606,28.918,64.523,64.557,64.523h679.408c35.606,0,64.523-28.918,64.523-64.523V561.542&#10;&#9;C1004.244,534.558,987.736,511.573,964.328,501.934z M633.059,781.283l46.212,224.334H538.859l45.426-224.529&#10;&#9;c-40.867-10.952-71.131-47.938-71.131-92.199c0-53.017,42.952-95.939,95.902-95.939c52.987,0,95.888,42.922,95.888,95.939&#10;&#9;C704.945,733.48,674.339,770.596,633.059,781.283z M346.871,496.951c5.446-158.562,118.299-285.382,257.123-285.382&#10;&#9;c138.787,0,251.576,126.821,257.103,285.382H346.871z" 
style="fill: rgb(255, 255, 255);"/>
</svg>